<svg xmlns="http://www.w3.org/2000/svg" width="1600" height="920" viewBox="0 0 1600 920" role="img" aria-labelledby="title desc">
  <title id="title">Candy deployment architecture</title>
  <desc id="desc">A product-style architecture diagram for Candy showing webhook intake, the control plane, deployment model, execution fabric, and audit storage.</desc>
  <defs>
    <linearGradient id="bg" x1="0" y1="0" x2="1" y2="1">
      <stop offset="0" stop-color="#ffffff"/>
      <stop offset="0.58" stop-color="#f8fafc"/>
      <stop offset="1" stop-color="#fff1f4"/>
    </linearGradient>
    <linearGradient id="candy" x1="0" y1="0" x2="1" y2="1">
      <stop offset="0" stop-color="#ef3150"/>
      <stop offset="1" stop-color="#2c99f0"/>
    </linearGradient>
    <filter id="shadow" x="-20%" y="-20%" width="140%" height="140%">
      <feDropShadow dx="0" dy="16" stdDeviation="18" flood-color="#0f172a" flood-opacity="0.12"/>
    </filter>
    <marker id="arrow" markerWidth="16" markerHeight="16" refX="12" refY="8" orient="auto" markerUnits="strokeWidth">
      <path d="M3 3L13 8L3 13Z" fill="#64748b"/>
    </marker>
    <style>
      .title { font: 800 44px Inter, -apple-system, BlinkMacSystemFont, "Segoe UI", sans-serif; fill: #182230; }
      .subtitle { font: 500 18px Inter, -apple-system, BlinkMacSystemFont, "Segoe UI", sans-serif; fill: #64748b; }
      .section { font: 800 16px Inter, -apple-system, BlinkMacSystemFont, "Segoe UI", sans-serif; fill: #182230; letter-spacing: .08em; text-transform: uppercase; }
      .label { font: 800 25px Inter, -apple-system, BlinkMacSystemFont, "Segoe UI", sans-serif; fill: #182230; }
      .small { font: 500 17px Inter, -apple-system, BlinkMacSystemFont, "Segoe UI", sans-serif; fill: #64748b; }
      .tiny { font: 700 14px Inter, -apple-system, BlinkMacSystemFont, "Segoe UI", sans-serif; fill: #64748b; }
      .panel { fill: rgba(255,255,255,.92); stroke: #e2e8f0; stroke-width: 2; filter: url(#shadow); }
      .soft { fill: #f8fafc; stroke: #e2e8f0; stroke-width: 2; }
      .red { fill: #fff1f4; stroke: #ef3150; stroke-width: 2; }
      .blue { fill: #edf6ff; stroke: #2c99f0; stroke-width: 2; }
      .green { fill: #ecfbf3; stroke: #1f8e5e; stroke-width: 2; }
      .yellow { fill: #fff7df; stroke: #b27300; stroke-width: 2; }
      .line { fill: none; stroke: #64748b; stroke-width: 3; stroke-linecap: round; marker-end: url(#arrow); }
      .dash { fill: none; stroke: #94a3b8; stroke-width: 2.5; stroke-dasharray: 8 8; marker-end: url(#arrow); }
    </style>
  </defs>

  <rect width="1600" height="920" rx="0" fill="url(#bg)"/>

  <g transform="translate(90 64)">
    <rect x="0" y="0" width="84" height="54" rx="18" fill="url(#candy)"/>
    <circle cx="42" cy="27" r="18" fill="#ffffff" opacity=".92"/>
    <path d="M31 28h22M42 17v22" stroke="#2f3b4a" stroke-width="5" stroke-linecap="round"/>
    <text x="112" y="34" class="title">Candy Deployment Architecture</text>
    <text x="112" y="68" class="subtitle">Webhook-driven continuous deployment with environment isolation and Runner execution</text>
  </g>

  <g transform="translate(92 166)">
    <rect class="panel" x="0" y="0" width="1416" height="660" rx="28"/>

    <g transform="translate(42 48)">
      <text class="section" x="0" y="0">External Entry</text>
      <rect class="soft" x="0" y="28" width="270" height="116" rx="18"/>
      <text class="label" x="28" y="78">Git Platforms</text>
      <text class="small" x="28" y="110">GitHub / Gitee push event</text>
      <text class="tiny" x="28" y="136">Webhook payload + signature</text>

      <rect class="soft" x="0" y="188" width="270" height="116" rx="18"/>
      <text class="label" x="28" y="238">Ops Team</text>
      <text class="small" x="28" y="270">Browser dashboard</text>
      <text class="tiny" x="28" y="296">Repos, Runners, Secrets, Logs</text>
    </g>

    <g transform="translate(388 48)">
      <text class="section" x="0" y="0">Candy Control Plane</text>
      <rect class="red" x="0" y="28" width="360" height="276" rx="22"/>
      <text class="label" x="30" y="80">Go API Server</text>
      <text class="small" x="30" y="112">Authentication and configuration</text>
      <rect x="30" y="146" width="300" height="48" rx="12" fill="#ffffff" stroke="#f6b8c4"/>
      <text class="tiny" x="54" y="176">Webhook Gateway: verify / filter / dedupe</text>
      <rect x="30" y="210" width="300" height="48" rx="12" fill="#ffffff" stroke="#f6b8c4"/>
      <text class="tiny" x="54" y="240">Deployment Queue: async workers</text>
      <circle cx="316" cy="70" r="18" fill="#ef3150"/>
      <path d="M309 70l5 5l11-12" fill="none" stroke="#ffffff" stroke-width="4" stroke-linecap="round" stroke-linejoin="round"/>
    </g>

    <g transform="translate(388 392)">
      <text class="section" x="0" y="0">Deployment Model</text>
      <rect class="blue" x="0" y="28" width="360" height="178" rx="22"/>
      <text class="label" x="30" y="80">Environment Binding</text>
      <text class="small" x="30" y="112">Production, Testing, or custom</text>
      <text class="tiny" x="30" y="144">Shared repository source + branch + script</text>
      <text class="tiny" x="30" y="172">Encrypted Secrets injected as env vars</text>
    </g>

    <g transform="translate(830 48)">
      <text class="section" x="0" y="0">Execution Fabric</text>
      <rect class="green" x="0" y="28" width="326" height="276" rx="22"/>
      <text class="label" x="30" y="80">Central Checkout</text>
      <text class="small" x="30" y="112">clone / fetch / checkout commit</text>
      <rect x="30" y="148" width="266" height="48" rx="12" fill="#ffffff" stroke="#a9e3c6"/>
      <text class="tiny" x="54" y="178">Local Runner: bash in work dir</text>
      <rect x="30" y="212" width="266" height="48" rx="12" fill="#ffffff" stroke="#a9e3c6"/>
      <text class="tiny" x="54" y="242">SSH Runner: scp sync + ssh bash</text>
    </g>

    <g transform="translate(830 392)">
      <text class="section" x="0" y="0">Audit and Visibility</text>
      <rect class="yellow" x="0" y="28" width="326" height="178" rx="22"/>
      <text class="label" x="30" y="80">SQLite Store</text>
      <text class="small" x="30" y="112">Configuration, jobs, logs</text>
      <text class="tiny" x="30" y="144">stdout / stderr / exit code</text>
      <text class="tiny" x="30" y="172">Deployment history for dashboard</text>
    </g>

    <g transform="translate(1224 48)">
      <text class="section" x="0" y="0">Outcome</text>
      <rect class="soft" x="0" y="28" width="144" height="526" rx="24"/>
      <circle cx="72" cy="98" r="34" fill="#fff1f4" stroke="#ef3150" stroke-width="2"/>
      <text class="tiny" x="36" y="158">Verified</text>
      <text class="tiny" x="28" y="180">Webhook</text>
      <circle cx="72" cy="250" r="34" fill="#ecfbf3" stroke="#1f8e5e" stroke-width="2"/>
      <text class="tiny" x="38" y="310">Runner</text>
      <text class="tiny" x="30" y="332">Execution</text>
      <circle cx="72" cy="402" r="34" fill="#edf6ff" stroke="#2c99f0" stroke-width="2"/>
      <text class="tiny" x="34" y="462">Visible</text>
      <text class="tiny" x="42" y="484">Trace</text>
    </g>

    <path class="line" d="M312 104H374"/>
    <path class="line" d="M312 264H374"/>
    <path class="line" d="M748 186H816"/>
    <path class="line" d="M748 508H816"/>
    <path class="line" d="M996 324V378"/>
    <path class="line" d="M1156 186H1210"/>
    <path class="dash" d="M996 598C706 640 486 624 200 506"/>
  </g>
</svg>
